<svg width="290" height="100" viewBox="0 0 290 100" fill="none" xmlns="http://www.w3.org/2000/svg">
<path d="M271.793 88.9199V58.8368H277.887V71.5792H277.721C277.721 67.2578 278.644 63.9891 280.491 61.7731C282.337 59.557 285.052 58.449 288.635 58.449H289.743V65.1526H287.637C285.052 65.1526 283.039 65.8543 281.599 67.2578C280.195 68.6244 279.493 70.6189 279.493 73.2412V88.9199H271.793Z" fill="#48A7FF"/>
<path d="M253.116 89.9724C250.53 89.9724 248.259 89.5292 246.301 88.6427C244.381 87.7563 242.774 86.5744 241.481 85.097C240.225 83.5827 239.265 81.9022 238.6 80.0555C237.972 78.2087 237.659 76.3251 237.659 74.4045V73.3519C237.659 71.3574 237.972 69.4368 238.6 67.5901C239.265 65.7064 240.225 64.0444 241.481 62.6039C242.774 61.1265 244.362 59.9631 246.246 59.1136C248.129 58.2272 250.309 57.784 252.783 57.784C256.033 57.784 258.748 58.5042 260.927 59.9446C263.143 61.3481 264.805 63.2133 265.913 65.5402C267.021 67.8301 267.575 70.3048 267.575 72.964V75.7341H240.927V71.025H262.755L260.373 73.3519C260.373 71.4313 260.096 69.7877 259.542 68.4211C258.988 67.0545 258.139 66.0019 256.994 65.2632C255.886 64.5245 254.482 64.1552 252.783 64.1552C251.084 64.1552 249.644 64.543 248.462 65.3186C247.28 66.0942 246.375 67.2207 245.747 68.6981C245.156 70.1386 244.861 71.8745 244.861 73.9059C244.861 75.7895 245.156 77.47 245.747 78.9474C246.338 80.3879 247.243 81.5328 248.462 82.3823C249.681 83.1949 251.232 83.6012 253.116 83.6012C254.999 83.6012 256.532 83.2318 257.714 82.4931C258.896 81.7175 259.653 80.7757 259.985 79.6676H267.077C266.634 81.736 265.784 83.5458 264.528 85.097C263.273 86.6483 261.666 87.8486 259.708 88.6981C257.788 89.5476 255.59 89.9724 253.116 89.9724Z" fill="#48A7FF"/>
<path d="M205.945 88.9197V58.8365H212.039V71.7451H211.485C211.485 68.6796 211.891 66.1311 212.704 64.0997C213.517 62.0313 214.717 60.4801 216.305 59.4459C217.93 58.4118 219.943 57.8947 222.344 57.8947H222.676C226.259 57.8947 228.974 59.0581 230.82 61.385C232.667 63.6749 233.59 67.1098 233.59 71.6897V88.9197H225.89V71.0249C225.89 69.1782 225.354 67.6823 224.283 66.5374C223.249 65.3924 221.808 64.8199 219.962 64.8199C218.078 64.8199 216.545 65.4109 215.363 66.5928C214.218 67.7377 213.646 69.289 213.646 71.2465V88.9197H205.945Z" fill="#48A7FF"/>
<path d="M172.236 88.9197V58.8365H178.331V71.7451H177.777C177.777 68.6796 178.183 66.1311 178.995 64.0997C179.808 62.0313 181.008 60.4801 182.597 59.4459C184.222 58.4118 186.235 57.8947 188.635 57.8947H188.968C192.55 57.8947 195.265 59.0581 197.112 61.385C198.958 63.6749 199.882 67.1098 199.882 71.6897V88.9197H192.181V71.0249C192.181 69.1782 191.645 67.6823 190.574 66.5374C189.54 65.3924 188.1 64.8199 186.253 64.8199C184.369 64.8199 182.837 65.4109 181.655 66.5928C180.51 67.7377 179.937 69.289 179.937 71.2465V88.9197H172.236Z" fill="#48A7FF"/>
<path d="M160.109 88.9198V80.0001H158.835V70.0832C158.835 68.3473 158.41 67.0546 157.561 66.2051C156.711 65.3556 155.4 64.9309 153.627 64.9309C152.704 64.9309 151.596 64.9493 150.303 64.9863C149.011 65.0232 147.699 65.0786 146.37 65.1525C145.077 65.1894 143.914 65.2448 142.88 65.3187V58.7813C143.729 58.7074 144.689 58.6335 145.76 58.5597C146.831 58.4858 147.921 58.4489 149.029 58.4489C150.174 58.4119 151.245 58.3935 152.242 58.3935C155.345 58.3935 157.912 58.7997 159.943 59.6123C162.012 60.4249 163.563 61.6991 164.597 63.435C165.668 65.1709 166.204 67.4424 166.204 70.2494V88.9198H160.109ZM150.414 89.6954C148.235 89.6954 146.314 89.3076 144.652 88.532C143.027 87.7564 141.753 86.6483 140.83 85.2079C139.943 83.7675 139.5 82.0315 139.5 80.0001C139.5 77.7841 140.036 75.9743 141.107 74.5708C142.215 73.1673 143.747 72.1146 145.705 71.4129C147.699 70.7111 150.026 70.3602 152.686 70.3602H159.666V74.9586H152.575C150.802 74.9586 149.435 75.4018 148.475 76.2882C147.552 77.1377 147.09 78.2457 147.09 79.6123C147.09 80.9789 147.552 82.0869 148.475 82.9364C149.435 83.7859 150.802 84.2107 152.575 84.2107C153.646 84.2107 154.625 84.026 155.511 83.6566C156.434 83.2504 157.192 82.5855 157.783 81.6622C158.41 80.7019 158.761 79.4092 158.835 77.7841L160.719 79.9447C160.534 82.05 160.017 83.8229 159.168 85.2633C158.355 86.7037 157.21 87.8118 155.733 88.5874C154.292 89.3261 152.519 89.6954 150.414 89.6954Z" fill="#48A7FF"/>
<path d="M127.606 88.9198V48.4765H135.306V88.9198H127.606ZM123.838 54.2383V48.4765H135.306V54.2383H123.838Z" fill="#48A7FF"/>
<path d="M90.696 100V58.8365H96.7902V71.8005L95.8484 71.7451C95.9961 68.6796 96.624 66.1126 97.7321 64.0443C98.877 61.9759 100.391 60.4432 102.275 59.4459C104.159 58.4118 106.264 57.8947 108.591 57.8947C110.733 57.8947 112.654 58.2825 114.353 59.0581C116.089 59.8337 117.566 60.9233 118.785 62.3268C120.04 63.7303 121.001 65.3739 121.666 67.2576C122.33 69.1043 122.663 71.0988 122.663 73.241V74.4044C122.663 76.5835 122.33 78.6149 121.666 80.4986C121.038 82.3453 120.096 83.9889 118.84 85.4293C117.621 86.8329 116.144 87.9409 114.408 88.7534C112.672 89.5291 110.733 89.9169 108.591 89.9169C106.338 89.9169 104.269 89.4552 102.386 88.5318C100.539 87.5715 99.0432 86.1126 97.8983 84.1551C96.7533 82.1606 96.1069 79.5937 95.9592 76.4543L98.3969 80.1662V100H90.696ZM106.652 83.4349C108.314 83.4349 109.754 83.0286 110.973 82.216C112.229 81.4035 113.208 80.277 113.909 78.8365C114.611 77.3592 114.962 75.6971 114.962 73.8504C114.962 71.9298 114.611 70.2677 113.909 68.8642C113.208 67.4607 112.229 66.3711 110.973 65.5955C109.754 64.783 108.314 64.3767 106.652 64.3767C105.137 64.3767 103.734 64.7091 102.441 65.3739C101.185 66.0387 100.151 67.0175 99.3387 68.3102C98.5631 69.6029 98.1753 71.1542 98.1753 72.964V75.18C98.1753 76.9159 98.5816 78.3933 99.3941 79.6122C100.207 80.831 101.259 81.7728 102.552 82.4376C103.845 83.1025 105.211 83.4349 106.652 83.4349Z" fill="#48A7FF"/>
<path d="M213.799 40.4433V0H221.5V40.4433H213.799ZM210.031 5.76178V0H221.5V5.76178H210.031Z" fill="#093762"/>
<path d="M194.734 41.4958C192.149 41.4958 189.877 41.0526 187.92 40.1662C185.999 39.2798 184.393 38.0979 183.1 36.6205C181.844 35.1062 180.884 33.4256 180.219 31.5789C179.591 29.7322 179.277 27.8485 179.277 25.928V24.8753C179.277 22.8809 179.591 20.9603 180.219 19.1135C180.884 17.2299 181.844 15.5678 183.1 14.1274C184.393 12.65 185.981 11.4866 187.864 10.6371C189.748 9.75065 191.927 9.30743 194.402 9.30743C197.652 9.30743 200.367 10.0277 202.546 11.4681C204.762 12.8716 206.424 14.7368 207.532 17.0637C208.64 19.3536 209.194 21.8282 209.194 24.4875V27.2576H182.546V22.5484H204.374L201.992 24.8753C201.992 22.9547 201.715 21.3111 201.161 19.9446C200.607 18.578 199.757 17.5254 198.612 16.7867C197.504 16.048 196.101 15.6786 194.402 15.6786C192.703 15.6786 191.262 16.0664 190.08 16.8421C188.899 17.6177 187.994 18.7442 187.366 20.2216C186.775 21.662 186.479 23.3979 186.479 25.4293C186.479 27.313 186.775 28.9935 187.366 30.4709C187.957 31.9113 188.862 33.0563 190.08 33.9058C191.299 34.7184 192.851 35.1246 194.734 35.1246C196.618 35.1246 198.151 34.7553 199.333 34.0166C200.514 33.241 201.272 32.2992 201.604 31.1911H208.695C208.252 33.2594 207.403 35.0692 206.147 36.6205C204.891 38.1717 203.285 39.3721 201.327 40.2216C199.406 41.0711 197.209 41.4958 194.734 41.4958Z" fill="#093762"/>
<path d="M172.865 40.8312C170.095 40.8312 167.805 40.4803 165.995 39.7785C164.222 39.0398 162.892 37.821 162.006 36.122C161.12 34.3861 160.676 32.0592 160.676 29.1414L160.732 1.88376H167.934L167.879 29.64C167.879 31.1174 168.266 32.2624 169.042 33.0749C169.855 33.8506 171 34.2384 172.477 34.2384H177.186V40.8312H172.865ZM155.912 16.0112V10.3602H177.186V16.0112H155.912Z" fill="#093762"/>
<path d="M138.864 41.4958C136.205 41.4958 133.86 41.0711 131.828 40.2216C129.797 39.3721 128.08 38.2271 126.676 36.7867C125.273 35.3093 124.201 33.6473 123.463 31.8005C122.761 29.9538 122.41 28.0332 122.41 26.0388V24.8753C122.41 22.807 122.78 20.8495 123.518 19.0027C124.294 17.1191 125.383 15.457 126.787 14.0166C128.227 12.5392 129.963 11.3942 131.995 10.5817C134.026 9.73218 136.316 9.30743 138.864 9.30743C141.413 9.30743 143.703 9.73218 145.734 10.5817C147.766 11.3942 149.483 12.5392 150.887 14.0166C152.327 15.457 153.417 17.1191 154.155 19.0027C154.894 20.8495 155.263 22.807 155.263 24.8753V26.0388C155.263 28.0332 154.894 29.9538 154.155 31.8005C153.454 33.6473 152.401 35.3093 150.997 36.7867C149.594 38.2271 147.876 39.3721 145.845 40.2216C143.814 41.0711 141.487 41.4958 138.864 41.4958ZM138.864 34.903C140.748 34.903 142.336 34.4968 143.629 33.6842C144.922 32.8347 145.9 31.7082 146.565 30.3047C147.23 28.8642 147.563 27.2391 147.563 25.4293C147.563 23.5826 147.212 21.9575 146.51 20.554C145.845 19.1135 144.848 17.987 143.518 17.1745C142.226 16.325 140.674 15.9002 138.864 15.9002C137.055 15.9002 135.485 16.325 134.155 17.1745C132.863 17.987 131.865 19.1135 131.164 20.554C130.462 21.9575 130.111 23.5826 130.111 25.4293C130.111 27.2391 130.443 28.8642 131.108 30.3047C131.81 31.7082 132.807 32.8347 134.1 33.6842C135.393 34.4968 136.981 34.903 138.864 34.903Z" fill="#093762"/>
<path d="M90.696 40.4433V0H98.3969V23.6011H97.0672C97.0672 20.5725 97.4551 18.0056 98.2307 15.9003C99.0063 13.795 100.151 12.1884 101.666 11.0803C103.217 9.97231 105.174 9.41829 107.538 9.41829H107.871C111.305 9.41829 113.909 10.6002 115.682 12.964C117.455 15.3278 118.342 18.7627 118.342 23.2687V40.4433H110.641V22.5485C110.641 20.6279 110.087 19.1136 108.979 18.0056C107.908 16.8975 106.486 16.3435 104.713 16.3435C102.829 16.3435 101.296 16.9714 100.114 18.2272C98.9694 19.446 98.3969 21.0527 98.3969 23.0471V40.4433H90.696Z" fill="#093762"/>
<path d="M15.4752 6.10352e-05C14.4926 6.10352e-05 14 0.000142376 14 0.000142376C32.0624 7.84001 34.0449 8.82 46.9311 13.72C49.5506 14.7161 50.2238 15.6706 50.2238 18.7726C50.3817 22.2099 50.2274 65.6596 50.2274 78.0001H63.8604C66.1467 78.0001 68 76.1677 68 73.9075V4.09265C68 1.83238 66.1467 6.10352e-05 63.8604 6.10352e-05H15.4752Z" fill="#48A7FF"/>
<path fill-rule="evenodd" clip-rule="evenodd" d="M6.9944 1.09947C3.99865 -0.180176 0 -0.956654 0 2.34794V82.0288C0 84.5813 2.79023 85.4766 5.44654 86.329C6.23085 86.5806 7.00348 86.8286 7.68917 87.1143L35.5328 98.7168C38.9713 100.15 43.0986 100.809 45.2826 97.7514C45.7001 97.167 45.9632 96.5889 45.9632 96.1058V24.98C45.9632 25.9526 45.9593 19.984 45.9593 19.984C45.9593 16.9864 43.9648 16.9864 36.9985 13.6261L6.9944 1.09947ZM36.1978 64.556C38.1707 64.556 39.77 61.845 39.77 58.5008C39.77 55.1567 38.1707 52.4457 36.1978 52.4457C34.2249 52.4457 32.6256 55.1567 32.6256 58.5008C32.6256 61.845 34.2249 64.556 36.1978 64.556Z" fill="#093762"/>
</svg>
